<svg width="40" height="40" viewBox="0 0 40 40" fill="none" xmlns="http://www.w3.org/2000/svg">
<path d="M20.4163 39.9999C31.2319 39.9999 39.9997 31.2322 39.9997 20.4166C39.9997 9.60101 31.2319 0.833252 20.4163 0.833252C9.60077 0.833252 0.833008 9.60101 0.833008 20.4166C0.833008 31.2322 9.60077 39.9999 20.4163 39.9999Z" fill="#EFF9FF"/>
<path d="M17.4997 4.99992C17.4997 7.3011 13.7687 9.16659 9.16634 9.16659C4.56397 9.16659 0.833008 7.3011 0.833008 4.99992M17.4997 4.99992C17.4997 2.69874 13.7687 0.833252 9.16634 0.833252C4.56397 0.833252 0.833008 2.69874 0.833008 4.99992M17.4997 4.99992C17.4997 4.99992 17.4997 9.47033 17.4997 10.8333M0.833008 4.99992C0.833008 4.99992 0.833008 8.53217 0.833008 10.8333M0.833008 10.8333C0.833008 13.1345 4.56397 15 9.16634 15C13.7687 15 17.4997 13.1345 17.4997 10.8333M0.833008 10.8333C0.833008 10.8333 0.833008 14.3654 0.833008 16.6666M17.4997 10.8333C17.4997 10.8333 17.4997 15.3036 17.4997 16.6666M0.833008 16.6666C0.833008 18.9678 4.56397 20.8333 9.16634 20.8333C13.7687 20.8333 17.4997 18.9678 17.4997 16.6666M0.833008 16.6666C0.833008 16.6666 0.833008 20.1989 0.833008 22.5001M17.4997 16.6666C17.4997 16.6666 17.4997 21.1371 17.4997 22.5001M17.4997 16.6666C17.4997 14.3654 21.231 12.5 25.8333 12.5C30.4357 12.5 34.1667 14.3655 34.1667 16.6667M17.4997 16.6666C17.4997 18.9678 21.231 20.8333 25.8333 20.8333C30.4357 20.8333 34.1667 18.9678 34.1667 16.6667M17.4997 16.6666C17.4997 16.6666 17.4997 20.1989 17.4997 22.5001M0.833008 22.5001C0.833008 24.8012 4.56397 26.6667 9.16634 26.6667C13.7687 26.6667 17.4997 24.8012 17.4997 22.5001M0.833008 22.5001C0.833008 22.5001 0.833008 26.0322 0.833008 28.3333C0.833008 30.6345 4.56397 32.5 9.16634 32.5C13.7687 32.5 17.4997 30.6345 17.4997 28.3333M17.4997 22.5001C17.4997 22.5001 17.4997 26.9703 17.4997 28.3333M17.4997 22.5001C17.4997 24.8012 21.231 26.6667 25.8333 26.6667C30.4357 26.6667 34.1667 24.8012 34.1667 22.5001M17.4997 22.5001C17.4997 22.5001 17.4997 26.0322 17.4997 28.3333M17.4997 28.3333C17.4997 30.6345 21.231 32.5 25.8333 32.5C30.4357 32.5 34.1667 30.6345 34.1667 28.3333C34.1667 26.9703 34.1667 22.5001 34.1667 22.5001M34.1667 16.6667C34.1667 16.6667 34.1667 21.1371 34.1667 22.5001" stroke="#0962E8" stroke-linecap="round" stroke-linejoin="round"/>
</svg>
