<svg width="40" height="40" viewBox="0 0 40 40" fill="none" xmlns="http://www.w3.org/2000/svg">
<path d="M19.5833 39.1667C30.3989 39.1667 39.1667 30.3989 39.1667 19.5833C39.1667 8.76776 30.3989 0 19.5833 0C8.76776 0 0 8.76776 0 19.5833C0 30.3989 8.76776 39.1667 19.5833 39.1667Z" fill="#EFF9FF"/>
<path d="M17.2174 15.7619C20.0989 15.7619 22.4348 14.6959 22.4348 13.381C22.4348 12.066 20.0989 11 17.2174 11C14.3359 11 12 12.066 12 13.381C12 14.6959 14.3359 15.7619 17.2174 15.7619Z" stroke="#0962E8" stroke-linecap="round" stroke-linejoin="round"/>
<path d="M12 13.8564C12 13.8564 12 15.8748 12 17.1898C12 18.5047 14.3359 19.5707 17.2174 19.5707C20.0989 19.5707 22.4348 18.5047 22.4348 17.1898C22.4348 16.4109 22.4348 13.8564 22.4348 13.8564" stroke="#0962E8" stroke-linecap="round" stroke-linejoin="round"/>
<path d="M12 16.7153C12 16.7153 12 19.4065 12 21.1598C12 22.913 14.3359 24.3344 17.2174 24.3344C20.0989 24.3344 22.4348 22.913 22.4348 21.1598C22.4348 20.1213 22.4348 16.7153 22.4348 16.7153" stroke="#0962E8" stroke-linecap="round" stroke-linejoin="round"/>
<path d="M12 20.5239C12 20.5239 12 23.2151 12 24.9684C12 26.7216 14.3359 28.143 17.2174 28.143C20.0989 28.143 22.4348 26.7216 22.4348 24.9684C22.4348 23.9299 22.4348 20.5239 22.4348 20.5239" stroke="#0962E8" stroke-linecap="round" stroke-linejoin="round"/>
<path d="M12 25.2847C12 25.2847 12 27.303 12 28.618C12 29.933 14.3359 30.999 17.2174 30.999C20.0989 30.999 22.4348 29.933 22.4348 28.618C22.4348 27.8391 22.4348 25.2847 22.4348 25.2847" stroke="#0962E8" stroke-linecap="round" stroke-linejoin="round"/>
<path d="M27.2172 24.3339C29.8585 24.3339 31.9998 23.0547 31.9998 21.4768C31.9998 19.8988 29.8585 18.6196 27.2172 18.6196C24.5758 18.6196 22.4346 19.8988 22.4346 21.4768C22.4346 23.0547 24.5758 24.3339 27.2172 24.3339Z" stroke="#0962E8" stroke-linecap="round" stroke-linejoin="round"/>
<path d="M22.4346 20.5239C22.4346 20.5239 22.4346 23.2151 22.4346 24.9684C22.4346 26.7216 24.5758 28.143 27.2172 28.143C29.8585 28.143 31.9998 26.7216 31.9998 24.9684C31.9998 23.9299 31.9998 20.5239 31.9998 20.5239" stroke="#0962E8" stroke-linecap="round" stroke-linejoin="round"/>
<path d="M22.4346 25.2847C22.4346 25.2847 22.4346 27.303 22.4346 28.618C22.4346 29.933 24.5758 30.999 27.2172 30.999C29.8585 30.999 31.9998 29.933 31.9998 28.618C31.9998 27.8391 31.9998 25.2847 31.9998 25.2847" stroke="#0962E8" stroke-linecap="round" stroke-linejoin="round"/>
</svg>
